<?xml version="1.0" encoding="utf-8" ?>
<svg baseProfile="full" height="233" version="1.1" width="165" xmlns="http://www.w3.org/2000/svg" xmlns:ev="http://www.w3.org/2001/xml-events" xmlns:xlink="http://www.w3.org/1999/xlink"><defs /><path d="M 83,19 L 74,60 L 66,79 L 57,92 L 74,116 L 77,128 L 75,138 L 72,141 L 65,140 L 59,132 L 58,125 L 53,126 L 47,133 L 38,122 L 38,107 L 48,71 L 47,47 L 39,30 L 37,32 L 38,47 L 35,61 L 15,108 L 13,128 L 16,140 L 22,150 L 33,158 L 36,154 L 38,155 L 36,169 L 47,165 L 64,170 L 71,177 L 70,186 L 76,192 L 76,197 L 81,201 L 86,201 L 90,199 L 91,192 L 96,188 L 97,183 L 95,179 L 102,171 L 120,165 L 131,169 L 130,156 L 132,155 L 134,158 L 141,154 L 151,140 L 154,129 L 154,116 L 147,94 L 133,64 L 129,47 L 129,30 L 123,39 L 119,52 L 119,70 L 129,107 L 129,122 L 120,133 L 114,126 L 109,125 L 109,130 L 102,140 L 96,141 L 91,135 L 92,119 L 97,109 L 110,94 L 110,91 L 103,82 L 95,65 Z" fill="black" stroke="none" /></svg>